# xmcd
#
# Track frame offsets:
#	150
#	16337
#	35298
#	54205
#	69140
#	90171
#	115336
#	131346
#	146181
#	162816
#	181692
#	197156
#	216771
#
# Disc length: 3048 seconds
#
# Revision: 1
# Processed by: cddbd v1.5.2PL0 Copyright (c) Steve Scherf et al.
# Submitted via: EasyCDDAExtractor 11.1.0.1
#
DISCID=a10be60d
DTITLE=Dolly Parton - Backwoods Barbie
DYEAR=2008
DGENRE=Country
TTITLE0=Better Get To Livin
TTITLE1=Made Of Stone
TTITLE2=Drives Me Crazy
TTITLE3=Backwoods Barbie
TTITLE4=Jesus and Gravity
TTITLE5=Only Dreamin'
TTITLE6=The Tracks Of My Tears
TTITLE7=The Lonesomes
TTITLE8=Cologne
TTITLE9=Shinola
TTITLE10=I Will Forever Hate Roses
TTITLE11=Somebody's Everything
TTITLE12=9 to 5 (Live)
EXTD=
EXTT0=
EXTT1=
EXTT2=
EXTT3=
EXTT4=
EXTT5=
EXTT6=
EXTT7=
EXTT8=
EXTT9=
EXTT10=
EXTT11=
EXTT12=
PLAYORDER=
